<svg xmlns="http://www.w3.org/2000/svg" viewBox="0 0 1920 1080">
  <defs>
    <radialGradient id="nebula1" cx="20%" cy="30%" r="40%">
      <stop offset="0%" style="stop-color:#1a1525;stop-opacity:0.6"/>
      <stop offset="100%" style="stop-color:transparent;stop-opacity:0"/>
    </radialGradient>
    <radialGradient id="nebula2" cx="80%" cy="70%" r="35%">
      <stop offset="0%" style="stop-color:#152025;stop-opacity:0.4"/>
      <stop offset="100%" style="stop-color:transparent;stop-opacity:0"/>
    </radialGradient>
  </defs>
  
  <!-- Base -->
  <rect fill="#080a0f" width="100%" height="100%"/>
  
  <!-- Nebula clouds -->
  <rect fill="url(#nebula1)" width="100%" height="100%"/>
  <rect fill="url(#nebula2)" width="100%" height="100%"/>
  
  <!-- Stars -->
  <g fill="#fff" opacity="0.6">
    <circle cx="100" cy="50" r="1"/>
    <circle cx="250" cy="120" r="0.8"/>
    <circle cx="400" cy="80" r="1.2"/>
    <circle cx="550" cy="200" r="0.6"/>
    <circle cx="700" cy="150" r="1"/>
    <circle cx="850" cy="90" r="0.7"/>
    <circle cx="1000" cy="180" r="1.1"/>
    <circle cx="1150" cy="60" r="0.9"/>
    <circle cx="1300" cy="140" r="1"/>
    <circle cx="1450" cy="100" r="0.8"/>
    <circle cx="1600" cy="170" r="1.2"/>
    <circle cx="1750" cy="80" r="0.7"/>
    <circle cx="180" cy="280" r="0.9"/>
    <circle cx="350" cy="350" r="1"/>
    <circle cx="520" cy="420" r="0.6"/>
    <circle cx="680" cy="380" r="1.1"/>
    <circle cx="840" cy="450" r="0.8"/>
    <circle cx="1020" cy="320" r="1"/>
    <circle cx="1180" cy="400" r="0.7"/>
    <circle cx="1340" cy="480" r="1.2"/>
    <circle cx="1500" cy="350" r="0.9"/>
    <circle cx="1680" cy="420" r="1"/>
    <circle cx="120" cy="550" r="0.8"/>
    <circle cx="300" cy="620" r="1.1"/>
    <circle cx="480" cy="580" r="0.6"/>
    <circle cx="640" cy="700" r="1"/>
    <circle cx="800" cy="650" r="0.9"/>
    <circle cx="960" cy="720" r="0.7"/>
    <circle cx="1120" cy="600" r="1.2"/>
    <circle cx="1280" cy="680" r="1"/>
    <circle cx="1440" cy="750" r="0.8"/>
    <circle cx="1600" cy="620" r="1.1"/>
    <circle cx="1780" cy="700" r="0.6"/>
    <circle cx="200" cy="850" r="1"/>
    <circle cx="380" cy="920" r="0.9"/>
    <circle cx="560" cy="880" r="1.2"/>
    <circle cx="720" cy="950" r="0.7"/>
    <circle cx="900" cy="820" r="1"/>
    <circle cx="1060" cy="900" r="0.8"/>
    <circle cx="1240" cy="860" r="1.1"/>
    <circle cx="1400" cy="940" r="0.6"/>
    <circle cx="1560" cy="880" r="1"/>
    <circle cx="1720" cy="960" r="0.9"/>
  </g>
</svg>
