<svg xmlns="http://www.w3.org/2000/svg" viewBox="0 0 64 64">
  <defs>
    <linearGradient id="yardStruct" x1="0%" y1="0%" x2="100%" y2="100%">
      <stop offset="0%" style="stop-color:#5a5a6a"/>
      <stop offset="100%" style="stop-color:#3a3a4a"/>
    </linearGradient>
  </defs>
  <!-- Base platform -->
  <rect x="4" y="52" width="56" height="6" fill="#3a3a3a" stroke="#4a4a4a" stroke-width="1"/>
  <!-- Main hangar -->
  <path d="M8 52 L8 24 L16 16 L48 16 L56 24 L56 52 Z" fill="url(#yardStruct)" stroke="#6a6a7a" stroke-width="1"/>
  <!-- Hangar door -->
  <rect x="20" y="32" width="24" height="20" fill="#1a1a22" stroke="#4a4a5a" stroke-width="0.5"/>
  <!-- Door segments -->
  <line x1="20" y1="38" x2="44" y2="38" stroke="#3a3a4a" stroke-width="0.5"/>
  <line x1="20" y1="44" x2="44" y2="44" stroke="#3a3a4a" stroke-width="0.5"/>
  <!-- Crane arms -->
  <line x1="12" y1="20" x2="12" y2="8" stroke="#5a5a5a" stroke-width="2"/>
  <line x1="12" y1="8" x2="32" y2="8" stroke="#5a5a5a" stroke-width="2"/>
  <line x1="52" y1="20" x2="52" y2="8" stroke="#5a5a5a" stroke-width="2"/>
  <line x1="52" y1="8" x2="32" y2="8" stroke="#5a5a5a" stroke-width="2"/>
  <!-- Crane hook -->
  <line x1="32" y1="8" x2="32" y2="18" stroke="#4a4a4a" stroke-width="1"/>
  <path d="M30 18 Q30 22 32 22 Q34 22 34 18" fill="none" stroke="#4a4a4a" stroke-width="1"/>
  <!-- Ship under construction (silhouette) -->
  <path d="M26 40 L32 34 L38 40 L36 44 L28 44 Z" fill="#2a2a32" stroke="#4a4a52" stroke-width="0.5" opacity="0.6"/>
  <!-- Work lights -->
  <circle cx="16" cy="28" r="2" fill="#c67b4e" opacity="0.7"/>
  <circle cx="48" cy="28" r="2" fill="#c67b4e" opacity="0.7"/>
  <!-- Status -->
  <rect x="24" y="20" width="16" height="4" fill="#2a2a32"/>
  <rect x="26" y="21" width="8" height="2" fill="#4a90b8" opacity="0.8"/>
</svg>
