<svg xmlns="http://www.w3.org/2000/svg" viewBox="0 0 64 64">
  <defs>
    <linearGradient id="assaultHull" x1="0%" y1="0%" x2="100%" y2="100%">
      <stop offset="0%" style="stop-color:#5a6068"/>
      <stop offset="50%" style="stop-color:#3a4048"/>
      <stop offset="100%" style="stop-color:#252a30"/>
    </linearGradient>
    <linearGradient id="assaultEngine" x1="0%" y1="0%" x2="0%" y2="100%">
      <stop offset="0%" style="stop-color:#b84a4a"/>
      <stop offset="100%" style="stop-color:#6a2a2a"/>
    </linearGradient>
  </defs>
  <!-- Main body - more angular/aggressive -->
  <path d="M32 4 L46 20 L50 28 L48 38 L42 46 L36 50 L32 54 L28 50 L22 46 L16 38 L14 28 L18 20 Z" fill="url(#assaultHull)" stroke="#6a7078" stroke-width="1"/>
  <!-- Wings - swept back -->
  <path d="M18 26 L4 38 L6 42 L16 36 Z" fill="#3a4248" stroke="#5a6268" stroke-width="0.5"/>
  <path d="M46 26 L60 38 L58 42 L48 36 Z" fill="#3a4248" stroke="#5a6268" stroke-width="0.5"/>
  <!-- Wing weapons -->
  <rect x="4" y="36" width="6" height="2" fill="#5a5a60"/>
  <rect x="54" y="36" width="6" height="2" fill="#5a5a60"/>
  <!-- Cockpit -->
  <path d="M28 12 L36 12 L38 20 L32 26 L26 20 Z" fill="#1a2a3a" stroke="#4a6080" stroke-width="0.5"/>
  <!-- Forward cannons -->
  <rect x="24" y="4" width="3" height="8" fill="#4a4a50"/>
  <rect x="37" y="4" width="3" height="8" fill="#4a4a50"/>
  <!-- Engine array -->
  <ellipse cx="28" cy="52" rx="2.5" ry="2" fill="url(#assaultEngine)" opacity="0.9"/>
  <ellipse cx="36" cy="52" rx="2.5" ry="2" fill="url(#assaultEngine)" opacity="0.9"/>
  <!-- Details -->
  <line x1="32" y1="26" x2="32" y2="46" stroke="#5a6068" stroke-width="0.5"/>
  <circle cx="32" cy="36" r="3" fill="#2a3038" stroke="#4a5058" stroke-width="0.5"/>
</svg>
