<svg xmlns="http://www.w3.org/2000/svg" viewBox="0 0 64 64">
  <defs>
    <linearGradient id="dreadHull" x1="0%" y1="0%" x2="100%" y2="100%">
      <stop offset="0%" style="stop-color:#5a6070"/>
      <stop offset="50%" style="stop-color:#3a4050"/>
      <stop offset="100%" style="stop-color:#252a35"/>
    </linearGradient>
    <linearGradient id="dreadEngine" x1="0%" y1="0%" x2="0%" y2="100%">
      <stop offset="0%" style="stop-color:#b84a4a"/>
      <stop offset="100%" style="stop-color:#6a2a2a"/>
    </linearGradient>
  </defs>
  <!-- Main massive hull -->
  <path d="M32 2 L44 8 L50 16 L52 28 L52 44 L48 54 L40 60 L32 62 L24 60 L16 54 L12 44 L12 28 L14 16 L20 8 Z" fill="url(#dreadHull)" stroke="#6a7080" stroke-width="1.5"/>
  <!-- Upper structure -->
  <path d="M26 8 L38 8 L42 14 L42 22 L38 28 L26 28 L22 22 L22 14 Z" fill="#2a3040" stroke="#4a5060" stroke-width="0.5"/>
  <!-- Command tower -->
  <rect x="28" y="10" width="8" height="12" fill="#1a2030" stroke="#4a90b8" stroke-width="0.5"/>
  <!-- Side weapon arrays -->
  <rect x="8" y="26" width="6" height="16" fill="#3a4050" stroke="#5a6070" stroke-width="0.5"/>
  <rect x="50" y="26" width="6" height="16" fill="#3a4050" stroke="#5a6070" stroke-width="0.5"/>
  <!-- Heavy cannons -->
  <rect x="6" y="28" width="3" height="4" fill="#5a6a7a"/>
  <rect x="6" y="36" width="3" height="4" fill="#5a6a7a"/>
  <rect x="55" y="28" width="3" height="4" fill="#5a6a7a"/>
  <rect x="55" y="36" width="3" height="4" fill="#5a6a7a"/>
  <!-- Engine array -->
  <ellipse cx="22" cy="58" rx="3" ry="2" fill="url(#dreadEngine)" opacity="0.9"/>
  <ellipse cx="32" cy="60" rx="4" ry="2.5" fill="url(#dreadEngine)" opacity="0.9"/>
  <ellipse cx="42" cy="58" rx="3" ry="2" fill="url(#dreadEngine)" opacity="0.9"/>
  <!-- Armor plating details -->
  <line x1="20" y1="30" x2="20" y2="50" stroke="#4a5060" stroke-width="0.5"/>
  <line x1="44" y1="30" x2="44" y2="50" stroke="#4a5060" stroke-width="0.5"/>
  <line x1="24" y1="36" x2="40" y2="36" stroke="#4a5060" stroke-width="0.5"/>
  <line x1="24" y1="46" x2="40" y2="46" stroke="#4a5060" stroke-width="0.5"/>
</svg>
