<svg xmlns="http://www.w3.org/2000/svg" viewBox="0 0 64 64">
  <defs>
    <linearGradient id="hull" x1="0%" y1="0%" x2="100%" y2="100%">
      <stop offset="0%" style="stop-color:#4a5568"/>
      <stop offset="50%" style="stop-color:#2d3748"/>
      <stop offset="100%" style="stop-color:#1a202c"/>
    </linearGradient>
    <linearGradient id="engine" x1="0%" y1="0%" x2="0%" y2="100%">
      <stop offset="0%" style="stop-color:#4a90b8"/>
      <stop offset="100%" style="stop-color:#2a5070"/>
    </linearGradient>
  </defs>
  <!-- Main body -->
  <path d="M32 8 L48 32 L44 36 L36 34 L36 52 L32 56 L28 52 L28 34 L20 36 L16 32 Z" fill="url(#hull)" stroke="#5a6a7a" stroke-width="1"/>
  <!-- Wings -->
  <path d="M28 28 L12 40 L12 36 L24 26 Z" fill="#3a4858" stroke="#4a5a6a" stroke-width="0.5"/>
  <path d="M36 28 L52 40 L52 36 L40 26 Z" fill="#3a4858" stroke="#4a5a6a" stroke-width="0.5"/>
  <!-- Cockpit -->
  <ellipse cx="32" cy="20" rx="4" ry="6" fill="#1a3a4a" stroke="#4a90b8" stroke-width="0.5"/>
  <!-- Engine glow -->
  <ellipse cx="32" cy="54" rx="3" ry="2" fill="url(#engine)" opacity="0.8"/>
  <!-- Details -->
  <line x1="32" y1="24" x2="32" y2="48" stroke="#4a5a6a" stroke-width="0.5"/>
  <circle cx="28" cy="42" r="1.5" fill="#3a4858"/>
  <circle cx="36" cy="42" r="1.5" fill="#3a4858"/>
</svg>
