<svg xmlns="http://www.w3.org/2000/svg" viewBox="0 0 64 64">
  <defs>
    <linearGradient id="cruiserHull" x1="0%" y1="0%" x2="100%" y2="100%">
      <stop offset="0%" style="stop-color:#5a6878"/>
      <stop offset="50%" style="stop-color:#3a4858"/>
      <stop offset="100%" style="stop-color:#2a3848"/>
    </linearGradient>
    <linearGradient id="cruiserEngine" x1="0%" y1="0%" x2="0%" y2="100%">
      <stop offset="0%" style="stop-color:#c67b4e"/>
      <stop offset="100%" style="stop-color:#8a5030"/>
    </linearGradient>
  </defs>
  <!-- Main hull -->
  <path d="M32 4 L40 12 L42 16 L44 28 L46 44 L44 52 L38 56 L32 58 L26 56 L20 52 L18 44 L20 28 L22 16 L24 12 Z" fill="url(#cruiserHull)" stroke="#6a7a8a" stroke-width="1"/>
  <!-- Bridge -->
  <path d="M28 10 L36 10 L38 18 L32 22 L26 18 Z" fill="#2a3a4a" stroke="#4a5a6a" stroke-width="0.5"/>
  <!-- Side pods -->
  <ellipse cx="18" cy="36" rx="4" ry="10" fill="#3a4858" stroke="#5a6a7a" stroke-width="0.5"/>
  <ellipse cx="46" cy="36" rx="4" ry="10" fill="#3a4858" stroke="#5a6a7a" stroke-width="0.5"/>
  <!-- Weapon mounts -->
  <rect x="14" y="30" width="4" height="3" fill="#4a5a6a"/>
  <rect x="46" y="30" width="4" height="3" fill="#4a5a6a"/>
  <rect x="14" y="38" width="4" height="3" fill="#4a5a6a"/>
  <rect x="46" y="38" width="4" height="3" fill="#4a5a6a"/>
  <!-- Engine glows -->
  <ellipse cx="26" cy="56" rx="2" ry="1.5" fill="url(#cruiserEngine)" opacity="0.9"/>
  <ellipse cx="32" cy="58" rx="2.5" ry="2" fill="url(#cruiserEngine)" opacity="0.9"/>
  <ellipse cx="38" cy="56" rx="2" ry="1.5" fill="url(#cruiserEngine)" opacity="0.9"/>
  <!-- Details -->
  <line x1="32" y1="22" x2="32" y2="50" stroke="#5a6a7a" stroke-width="0.5"/>
  <circle cx="32" cy="32" r="3" fill="#2a3a4a" stroke="#4a5a6a" stroke-width="0.5"/>
</svg>
