<svg xmlns="http://www.w3.org/2000/svg" viewBox="0 0 64 64">
  <defs>
    <linearGradient id="titanHull" x1="0%" y1="0%" x2="100%" y2="100%">
      <stop offset="0%" style="stop-color:#4a5060"/>
      <stop offset="50%" style="stop-color:#2a3040"/>
      <stop offset="100%" style="stop-color:#1a1a25"/>
    </linearGradient>
    <linearGradient id="titanEngine" x1="0%" y1="0%" x2="0%" y2="100%">
      <stop offset="0%" style="stop-color:#9a6ab8"/>
      <stop offset="100%" style="stop-color:#5a3a7a"/>
    </linearGradient>
    <radialGradient id="titanCore" cx="50%" cy="50%" r="50%">
      <stop offset="0%" style="stop-color:#7a6a9a"/>
      <stop offset="100%" style="stop-color:#3a3050"/>
    </radialGradient>
  </defs>
  <!-- Main hull - massive -->
  <path d="M32 1 L48 6 L56 14 L60 26 L60 42 L56 52 L48 58 L32 62 L16 58 L8 52 L4 42 L4 26 L8 14 L16 6 Z" fill="url(#titanHull)" stroke="#5a6070" stroke-width="2"/>
  <!-- Upper superstructure -->
  <path d="M22 6 L42 6 L48 12 L48 24 L42 32 L22 32 L16 24 L16 12 Z" fill="#252a38" stroke="#3a4050" stroke-width="1"/>
  <!-- Central command -->
  <polygon points="32,8 40,14 40,26 32,32 24,26 24,14" fill="#1a1a28" stroke="#4a5060" stroke-width="0.5"/>
  <!-- Core reactor -->
  <circle cx="32" cy="20" r="5" fill="url(#titanCore)" stroke="#7a6a9a" stroke-width="0.5"/>
  <circle cx="32" cy="20" r="2" fill="#9a8aba"/>
  <!-- Weapon arrays - sides -->
  <rect x="2" y="22" width="6" height="20" fill="#3a3a48" stroke="#4a4a58" stroke-width="0.5"/>
  <rect x="56" y="22" width="6" height="20" fill="#3a3a48" stroke="#4a4a58" stroke-width="0.5"/>
  <!-- Heavy turrets -->
  <circle cx="5" cy="26" r="2" fill="#4a4a58"/>
  <circle cx="5" cy="34" r="2" fill="#4a4a58"/>
  <circle cx="59" cy="26" r="2" fill="#4a4a58"/>
  <circle cx="59" cy="34" r="2" fill="#4a4a58"/>
  <!-- Main cannon -->
  <rect x="30" y="1" width="4" height="6" fill="#5a5a68"/>
  <!-- Lower hull details -->
  <path d="M18 38 L46 38 L50 48 L44 54 L20 54 L14 48 Z" fill="#2a2a38" stroke="#3a3a48" stroke-width="0.5"/>
  <!-- Engine array -->
  <ellipse cx="20" cy="58" rx="4" ry="2.5" fill="url(#titanEngine)" opacity="0.9"/>
  <ellipse cx="32" cy="60" rx="5" ry="3" fill="url(#titanEngine)" opacity="0.9"/>
  <ellipse cx="44" cy="58" rx="4" ry="2.5" fill="url(#titanEngine)" opacity="0.9"/>
</svg>
