<svg xmlns="http://www.w3.org/2000/svg" viewBox="0 0 64 64">
  <defs>
    <linearGradient id="vanguardHull" x1="0%" y1="0%" x2="100%" y2="100%">
      <stop offset="0%" style="stop-color:#5a6570"/>
      <stop offset="50%" style="stop-color:#3a4550"/>
      <stop offset="100%" style="stop-color:#252a35"/>
    </linearGradient>
    <linearGradient id="vanguardEngine" x1="0%" y1="0%" x2="0%" y2="100%">
      <stop offset="0%" style="stop-color:#4a90b8"/>
      <stop offset="100%" style="stop-color:#2a5070"/>
    </linearGradient>
  </defs>
  <!-- Heavy armored hull -->
  <path d="M32 4 L46 12 L52 24 L52 42 L46 52 L38 58 L32 60 L26 58 L18 52 L12 42 L12 24 L18 12 Z" fill="url(#vanguardHull)" stroke="#6a7580" stroke-width="1.5"/>
  <!-- Forward armor plate -->
  <path d="M24 8 L40 8 L44 16 L44 24 L40 30 L24 30 L20 24 L20 16 Z" fill="#2a3540" stroke="#4a5560" stroke-width="0.5"/>
  <!-- Shield emitters -->
  <circle cx="20" cy="20" r="3" fill="#3a4550" stroke="#4a90b8" stroke-width="0.5"/>
  <circle cx="44" cy="20" r="3" fill="#3a4550" stroke="#4a90b8" stroke-width="0.5"/>
  <!-- Weapon hardpoints -->
  <rect x="8" y="28" width="6" height="12" fill="#3a4050" stroke="#4a5060" stroke-width="0.5"/>
  <rect x="50" y="28" width="6" height="12" fill="#3a4050" stroke="#4a5060" stroke-width="0.5"/>
  <!-- Central command -->
  <rect x="28" y="14" width="8" height="10" fill="#1a2530" stroke="#4a6070" stroke-width="0.5"/>
  <!-- Armor plating details -->
  <line x1="24" y1="34" x2="40" y2="34" stroke="#4a5560" stroke-width="0.5"/>
  <line x1="24" y1="42" x2="40" y2="42" stroke="#4a5560" stroke-width="0.5"/>
  <line x1="28" y1="30" x2="28" y2="50" stroke="#4a5560" stroke-width="0.5"/>
  <line x1="36" y1="30" x2="36" y2="50" stroke="#4a5560" stroke-width="0.5"/>
  <!-- Engine array -->
  <ellipse cx="24" cy="56" rx="3" ry="2" fill="url(#vanguardEngine)" opacity="0.8"/>
  <ellipse cx="32" cy="58" rx="4" ry="2.5" fill="url(#vanguardEngine)" opacity="0.9"/>
  <ellipse cx="40" cy="56" rx="3" ry="2" fill="url(#vanguardEngine)" opacity="0.8"/>
</svg>
